<svg version="1.1" id="Layer_1" xmlns="http://www.w3.org/2000/svg" xmlns:xlink="http://www.w3.org/1999/xlink" x="0px" y="0px"
	 width="100%" viewBox="0 0 512 512" enable-background="new 0 0 512 512" xml:space="preserve">
<path fill="currentColor"
	d="M252.894073,372.949768 C233.554779,387.945221 208.446228,389.321411 188.027237,376.735260 C171.223953,366.377777 165.549652,343.735138 175.235138,324.568512 C184.355042,306.521179 199.404373,297.310699 219.398010,295.639404 C230.352020,294.723724 240.972290,295.447083 251.277939,300.933960 C252.324417,298.431671 251.924240,295.953735 251.926422,293.577393 C251.971512,244.432388 251.990341,195.287338 251.984772,146.142303 C251.984329,142.267456 252.085876,138.486816 254.490936,135.159973 C257.742035,130.662842 261.522827,129.978271 266.075989,133.138077 C268.591278,134.883652 270.462402,137.212128 272.053986,139.772614 C273.900238,142.742798 275.690643,145.748505 277.463562,148.763336 C283.124847,158.390121 290.475677,166.198227 299.980438,172.351974 C315.537262,182.424088 328.135681,195.867035 338.763489,210.870651 C354.098175,232.519089 351.821899,255.357147 341.203857,278.147949 C337.189301,286.764893 332.696716,295.216431 324.789124,301.062439 C318.821167,305.474487 312.419342,303.255188 310.232697,296.256989 C309.602570,294.240204 309.680145,292.404816 310.830475,290.531311 C324.901550,267.614014 319.901276,243.573792 298.689301,225.513000 C290.827667,218.819305 282.766052,212.421143 273.280151,207.723175 C271.482422,209.670532 272.084045,211.916489 272.081635,213.944168 C272.040039,249.261856 272.091705,284.579712 272.015167,319.897278 C271.996368,328.559906 271.341888,337.208466 269.161133,345.634979 C266.434357,356.171234 261.677246,365.566681 252.894073,372.949768 z"/>
<path fill="currentColor"
	d="M235.455093,214.496185 C236.133896,211.449524 234.586441,206.682083 239.046707,207.379562 C243.089493,208.011749 241.118851,212.231323 240.532501,214.940598 C239.478119,219.812286 239.636169,224.929672 237.701614,229.602234 C236.715637,231.983719 236.134415,235.155167 232.922302,235.377274 C229.313812,235.626770 229.908630,232.061584 228.927704,229.983353 C228.435593,228.940735 228.050079,227.847794 227.471710,226.420746 C225.601318,228.840744 225.792694,231.657776 224.658615,233.943054 C223.827911,235.616959 222.803421,237.367859 220.569107,236.870071 C218.696808,236.452988 218.022385,234.745697 217.976959,233.006577 C217.806488,226.478897 216.801041,220.116837 214.781769,213.892975 C214.149811,211.945129 214.618790,210.112701 217.053162,209.775528 C219.300812,209.464172 220.955124,210.183105 221.273285,212.809418 C221.621704,215.685303 222.127640,218.542084 222.625397,221.803345 C224.230957,220.262497 224.312454,218.736160 224.672806,217.338425 C225.205994,215.270218 225.285828,212.636993 228.176819,212.648804 C231.090088,212.660706 231.155853,215.155304 231.498428,217.347549 C231.801941,219.289856 232.409714,221.184601 233.114059,224.034607 C235.157639,220.658340 234.457520,217.568420 235.455093,214.496185 z"/>
<path fill="currentColor"
	d="M216.832657,268.152191 C218.070358,266.341919 218.975845,264.693115 220.272476,263.453400 C225.859299,258.111877 231.087524,257.625824 235.667603,261.845123 C240.494080,266.291443 241.051575,273.488159 236.908081,278.892303 C235.412415,280.843018 233.738922,282.657379 232.116043,284.569946 C233.851868,286.523285 235.938736,285.864349 237.839951,286.001068 C239.580719,286.126282 241.498169,285.228180 242.994827,286.836029 C241.447327,290.955566 234.975876,292.881470 229.086914,290.070343 C218.450287,284.993011 212.297562,279.430359 216.832657,268.152191 M224.388657,280.076691 C229.934570,280.707397 234.975555,276.246246 234.679428,270.958771 C234.583710,269.249817 234.209488,267.615814 232.587341,266.701538 C230.098846,265.299011 223.830154,266.754211 222.239273,269.030762 C219.402924,273.089569 219.864197,276.383606 224.388657,280.076691 z"/>
<path fill="currentColor"
	d="M234.599579,185.369781 C229.771088,186.421478 230.674545,180.931580 227.463074,179.874893 C224.461502,181.410233 224.326721,184.983261 222.631653,187.493958 C221.573593,189.061142 220.622421,190.936707 218.420929,189.883743 C216.126877,188.786530 217.115250,186.814041 217.826920,185.124390 C218.212006,184.210098 218.621765,183.257385 219.236343,182.496384 C223.950302,176.659180 225.238831,170.882339 219.561432,164.777130 C217.974930,163.071075 218.379898,160.910217 220.507294,159.700302 C222.567307,158.528717 223.938126,159.756241 224.902237,161.575821 C225.666489,163.018265 226.015167,164.735474 227.803040,165.822113 C229.238602,164.316925 229.566254,162.436172 229.662674,160.483002 C229.784042,158.024429 230.621796,155.905167 233.467667,156.568314 C236.154800,157.194458 236.269745,159.544312 235.522552,161.821030 C234.798691,164.026566 234.308762,166.437531 233.051178,168.312256 C230.499283,172.116440 231.588211,175.238846 234.214172,178.203293 C236.189651,180.433456 237.299683,182.577911 234.599579,185.369781 z"/>
</svg>